<mxfile host="app.diagrams.net" modified="2023-11-03T02:54:51.325Z" agent="Mozilla/5.0 (Windows NT 10.0; Win64; x64) AppleWebKit/537.36 (KHTML, like Gecko) Chrome/118.0.0.0 Safari/537.36" etag="WliTncRDb6yEKA26pJwC" version="22.0.8" type="github">
  <diagram name="PÃ¡gina-1" id="C_GQb4mmbFQv_jrzl5h5">
    <mxGraphModel dx="1050" dy="621" grid="1" gridSize="10" guides="1" tooltips="1" connect="1" arrows="1" fold="1" page="1" pageScale="1" pageWidth="827" pageHeight="1169" math="0" shadow="0">
      <root>
        <mxCell id="0" />
        <mxCell id="1" parent="0" />
        <mxCell id="aD2S1pmv5rcUVWKcGP6M-10" value="" style="edgeStyle=orthogonalEdgeStyle;rounded=0;orthogonalLoop=1;jettySize=auto;html=1;" edge="1" parent="1" source="aD2S1pmv5rcUVWKcGP6M-4" target="aD2S1pmv5rcUVWKcGP6M-9">
          <mxGeometry relative="1" as="geometry" />
        </mxCell>
        <mxCell id="aD2S1pmv5rcUVWKcGP6M-4" value="inicio" style="rounded=1;whiteSpace=wrap;html=1;" vertex="1" parent="1">
          <mxGeometry x="379" y="20" width="70" height="30" as="geometry" />
        </mxCell>
        <mxCell id="aD2S1pmv5rcUVWKcGP6M-12" value="" style="edgeStyle=orthogonalEdgeStyle;rounded=0;orthogonalLoop=1;jettySize=auto;html=1;" edge="1" parent="1" source="aD2S1pmv5rcUVWKcGP6M-9" target="aD2S1pmv5rcUVWKcGP6M-11">
          <mxGeometry relative="1" as="geometry" />
        </mxCell>
        <mxCell id="aD2S1pmv5rcUVWKcGP6M-9" value="Prepare vegetables as ingredients" style="rounded=1;whiteSpace=wrap;html=1;" vertex="1" parent="1">
          <mxGeometry x="340" y="60" width="166" height="35" as="geometry" />
        </mxCell>
        <mxCell id="aD2S1pmv5rcUVWKcGP6M-14" value="no" style="edgeStyle=orthogonalEdgeStyle;rounded=0;orthogonalLoop=1;jettySize=auto;html=1;" edge="1" parent="1" source="aD2S1pmv5rcUVWKcGP6M-11" target="aD2S1pmv5rcUVWKcGP6M-13">
          <mxGeometry relative="1" as="geometry" />
        </mxCell>
        <mxCell id="aD2S1pmv5rcUVWKcGP6M-16" value="yes" style="edgeStyle=orthogonalEdgeStyle;rounded=0;orthogonalLoop=1;jettySize=auto;html=1;" edge="1" parent="1" source="aD2S1pmv5rcUVWKcGP6M-11" target="aD2S1pmv5rcUVWKcGP6M-15">
          <mxGeometry relative="1" as="geometry" />
        </mxCell>
        <mxCell id="aD2S1pmv5rcUVWKcGP6M-11" value="Do you like carrots?" style="rhombus;whiteSpace=wrap;html=1;rounded=1;" vertex="1" parent="1">
          <mxGeometry x="354.5" y="110" width="137" height="50" as="geometry" />
        </mxCell>
        <mxCell id="aD2S1pmv5rcUVWKcGP6M-19" style="edgeStyle=orthogonalEdgeStyle;rounded=0;orthogonalLoop=1;jettySize=auto;html=1;entryX=0;entryY=0.5;entryDx=0;entryDy=0;" edge="1" parent="1" source="aD2S1pmv5rcUVWKcGP6M-13" target="aD2S1pmv5rcUVWKcGP6M-17">
          <mxGeometry relative="1" as="geometry">
            <Array as="points">
              <mxPoint x="290" y="210" />
              <mxPoint x="363" y="210" />
            </Array>
          </mxGeometry>
        </mxCell>
        <mxCell id="aD2S1pmv5rcUVWKcGP6M-13" value="Grate" style="rounded=1;whiteSpace=wrap;html=1;" vertex="1" parent="1">
          <mxGeometry x="190" y="140" width="120" height="60" as="geometry" />
        </mxCell>
        <mxCell id="aD2S1pmv5rcUVWKcGP6M-18" value="" style="edgeStyle=orthogonalEdgeStyle;rounded=0;orthogonalLoop=1;jettySize=auto;html=1;" edge="1" parent="1" source="aD2S1pmv5rcUVWKcGP6M-15" target="aD2S1pmv5rcUVWKcGP6M-17">
          <mxGeometry relative="1" as="geometry">
            <Array as="points">
              <mxPoint x="570" y="210" />
            </Array>
          </mxGeometry>
        </mxCell>
        <mxCell id="aD2S1pmv5rcUVWKcGP6M-15" value="Cut into small" style="rounded=1;whiteSpace=wrap;html=1;" vertex="1" parent="1">
          <mxGeometry x="540" y="140" width="120" height="60" as="geometry" />
        </mxCell>
        <mxCell id="aD2S1pmv5rcUVWKcGP6M-17" value="Spinach, pepers, eggpalnt cut the collie to a suitable size" style="rounded=1;whiteSpace=wrap;html=1;" vertex="1" parent="1">
          <mxGeometry x="363" y="190" width="120" height="60" as="geometry" />
        </mxCell>
      </root>
    </mxGraphModel>
  </diagram>
</mxfile>
